<?xml version="1.0" standalone="no"?>
<!DOCTYPE svg PUBLIC "-//W3C//DTD SVG 20010904//EN"
 "http://www.w3.org/TR/2001/REC-SVG-20010904/DTD/svg10.dtd">
<svg version="1.0" xmlns="http://www.w3.org/2000/svg"
 width="470.000000pt" height="470.000000pt" viewBox="0 0 470.000000 470.000000"
 preserveAspectRatio="xMidYMid meet">
<metadata>
Created by potrace 1.14, written by Peter Selinger 2001-2017
</metadata>
<g transform="translate(0.000000,470.000000) scale(0.100000,-0.100000)"
fill="#000000" stroke="none">
<path d="M1526 4483 c-2 -2 -16 -6 -32 -9 -16 -2 -35 -7 -43 -10 -8 -2 -30 -7
-50 -10 -20 -3 -50 -9 -67 -15 -17 -5 -44 -11 -60 -14 -41 -6 -73 -13 -82 -18
-4 -3 -23 -8 -42 -11 -37 -6 -50 -9 -120 -25 -25 -5 -57 -12 -72 -15 -15 -2
-33 -8 -40 -13 -11 -7 -14 -350 -13 -1970 l0 -1961 35 -10 c62 -18 114 -31
149 -37 19 -3 38 -8 43 -11 5 -3 21 -8 36 -10 15 -3 54 -12 86 -20 32 -9 71
-17 85 -19 14 -2 33 -6 41 -9 27 -10 145 -29 175 -29 21 1 90 11 90 13 0 2 21
6 65 13 19 4 67 13 105 23 39 9 81 18 94 20 14 3 28 7 31 9 13 8 75 18 103 17
16 -1 74 -12 130 -26 56 -14 113 -27 127 -30 14 -2 58 -12 97 -20 142 -31 167
-33 223 -21 14 3 41 8 60 11 27 4 104 19 150 29 3 0 28 5 55 9 28 4 57 12 65
16 8 4 31 10 50 13 19 3 123 26 230 52 107 25 204 48 215 49 11 2 49 12 85 21
36 9 72 18 80 20 8 2 35 8 60 15 25 7 52 13 60 15 8 2 68 17 132 34 64 17 131
33 150 36 18 3 37 10 43 16 9 9 18 2656 9 2690 -5 16 -38 35 -79 44 -11 2 -35
8 -52 14 -18 5 -33 8 -33 5 0 -3 -8 -1 -17 5 -10 5 -37 11 -61 15 -24 3 -46 7
-50 10 -4 2 -25 7 -47 10 -22 4 -56 11 -75 16 -19 5 -71 16 -115 25 -93 19
-109 29 -94 56 5 10 6 19 2 19 -5 0 -7 26 -6 58 3 68 3 80 3 252 0 175 0 199
-4 234 -3 26 -24 47 -51 52 -5 1 -36 9 -67 18 -31 10 -70 19 -85 22 -15 3 -44
9 -63 14 -19 5 -51 12 -70 15 -19 3 -51 10 -70 15 -19 5 -89 20 -155 34 -66
14 -163 34 -215 45 -52 12 -104 22 -115 24 -11 2 -27 7 -35 10 -8 3 -33 9 -55
13 -64 12 -68 12 -105 20 -19 4 -42 8 -50 9 -8 1 -25 5 -37 9 -12 4 -30 9 -40
11 -10 2 -49 11 -88 20 -38 9 -81 19 -95 22 -41 8 -55 11 -55 13 0 1 -11 3
-25 5 -14 2 -63 11 -110 20 -47 9 -98 19 -115 21 -16 3 -47 10 -68 15 -35 9
-132 10 -141 2z"/>
</g>
</svg>
