<svg width="96" height="80" viewBox="0 0 96 80" fill="none" xmlns="http://www.w3.org/2000/svg">
<path d="M38.247 58.599C38.247 57.5402 39.1033 56.6816 40.1593 56.6816C41.2153 56.6816 42.0718 57.5402 42.0716 58.599V60.3247C42.0716 61.3835 41.2153 62.2421 40.1593 62.2421C39.1033 62.2421 38.247 61.3835 38.247 60.3247V58.599Z" fill="white"/>
<path d="M75.1554 53.8054H74.3904C73.3344 53.8054 72.4781 54.664 72.4781 55.7228C72.4781 56.7817 73.3344 57.6402 74.3904 57.6402H75.1554C76.2114 57.6402 77.0677 56.7817 77.0677 55.7228C77.0677 54.664 76.2114 53.8054 75.1554 53.8054Z" fill="white"/>
<path d="M81.0837 53.8054H88.3506C89.4066 53.8054 90.2628 54.664 90.2628 55.7228C90.2628 56.7817 89.4066 57.6402 88.3506 57.6402H81.0837C80.0276 57.6402 79.1713 56.7817 79.1713 55.7228C79.1713 54.664 80.0276 53.8054 81.0837 53.8054Z" fill="white"/>
<path fill-rule="evenodd" clip-rule="evenodd" d="M1.91235 0H94.0876C95.1436 0 96 0.858591 96 1.91739V78.0824C96 79.1412 95.1436 79.9998 94.0876 80H1.91235C0.856293 80 0 79.1414 0 78.0826V1.91739C0 0.858591 0.856293 0 1.91235 0ZM59.205 3.83478V20.2698C59.205 20.7027 59.1779 21.1293 59.1302 21.5497C59.737 25.0218 62.7635 27.6696 66.3977 27.6696C70.0316 27.6696 73.0583 25.0218 73.665 21.5497C73.6172 21.1291 73.59 20.7025 73.59 20.2696V3.83478H59.205ZM40.8075 3.83478V20.2698C40.8075 20.7027 40.7803 21.1293 40.7327 21.5497C41.3394 25.0218 44.3661 27.6696 48.0002 27.6696C51.6343 27.6696 54.6609 25.0218 55.2676 21.5497C55.2198 21.1291 55.1927 20.7025 55.1927 20.2696V3.83478H40.8075ZM22.41 3.83478V20.2698C22.41 20.7027 22.383 21.1293 22.3352 21.5497C22.9419 25.0218 25.9686 27.6696 29.6025 27.6696C33.2367 27.6696 36.2632 25.0218 36.87 21.5497C36.8221 21.1291 36.795 20.7025 36.795 20.2696V3.83478H22.41ZM3.82462 3.83478V20.2696C3.82462 24.3499 7.13553 27.6696 11.205 27.6696C14.8391 27.6696 17.8658 25.0218 18.4725 21.5497C18.4247 21.1291 18.3975 20.7025 18.3975 20.2696V3.83478H3.82462ZM3.82462 76.165H32.5099V62.9502H3.82462V76.165ZM3.82462 59.1153H32.5099V40.708H3.82462V59.1153ZM36.3347 76.165H59.6653V40.708H36.3347V76.165ZM63.4902 76.165H92.1753V62.9502H63.4902V76.165ZM63.4902 59.1153H92.1753V40.708H63.4902V59.1153ZM92.1753 36.8732L92.1749 28.7124C90.202 30.4484 87.6197 31.5044 84.7946 31.5044C80.9887 31.5044 77.6218 29.5903 75.5959 26.6736C73.5699 29.5903 70.2032 31.5044 66.3973 31.5044C62.5914 31.5044 59.2245 29.5903 57.1986 26.6736C55.1726 29.5903 51.8058 31.5044 47.9998 31.5044C44.194 31.5044 40.827 29.5903 38.8011 26.6736C36.7751 29.5903 33.4081 31.5044 29.6023 31.5044C25.7964 31.5044 22.4297 29.5903 20.4037 26.6736C18.3778 29.5903 15.0109 31.5044 11.205 31.5044C8.37973 31.5044 5.79749 30.4484 3.82462 28.7124V36.8732H92.1753ZM92.1753 20.2698V3.83478H77.6025V20.2698C77.6025 20.7027 77.5753 21.1293 77.5275 21.5499C78.1342 25.022 81.1609 27.6698 84.795 27.6698C88.8645 27.6698 92.1753 24.3501 92.1753 20.2698Z" fill="white"/>
</svg>
