<svg width="100" height="80" viewBox="0 0 100 80" fill="none" xmlns="http://www.w3.org/2000/svg">
<path d="M38.6599 33.4177H34.5362V36.4557H38.6599V33.4177Z" fill="white"/>
<path d="M28.3503 33.4177H32.4741V36.4557H28.3503V33.4177Z" fill="white"/>
<path d="M81.959 11.1393H77.8353V14.1772H81.959V11.1393Z" fill="white"/>
<path d="M71.6495 11.1393H75.7732V14.1772H71.6495V11.1393Z" fill="white"/>
<path d="M92.2681 62.7848H84.0207V65.8228H92.2681V62.7848Z" fill="white"/>
<path d="M77.8353 68.8607H92.2683V71.8987H77.8353V68.8607Z" fill="white"/>
<path fill-rule="evenodd" clip-rule="evenodd" d="M89.6907 54.6836V0H59.7938V18.2279H49.4846V40.5063H45.3608V19.2405H11.3402V40.5063H0V80H100V54.6836H89.6907ZM14.433 22.2784H42.2681V26.3291H14.433V22.2784ZM14.433 29.3671H42.2681V40.5063H14.433V29.3671ZM30.9279 43.5443V57.7216H21.6495V43.5443H30.9279ZM49.4846 76.962H3.09277V43.5443H18.5567V60.7595H34.0206V43.5443H49.4846V76.962ZM62.8866 3.03796H86.598V18.2279H62.8866V3.03796ZM73.1959 21.2659V36.4557H65.9794V21.2659H73.1959ZM65.9794 76.962H52.5773V21.2659H62.8866V39.4937H76.2886V21.2659H86.598V54.6836H65.9794V76.962ZM96.9072 76.962H69.0721V57.7216H96.9072V76.962Z" fill="white"/>
</svg>
