<svg width="100" height="80" viewBox="0 0 100 80" fill="none" xmlns="http://www.w3.org/2000/svg">
<path d="M6.4517 8.00015H45.1616V33.5999H6.4517V8.00015Z" fill="white"/>
<path fill-rule="evenodd" clip-rule="evenodd" d="M56.6405 38.4H61.2906V38.6943C59.418 39.3566 58.0648 41.1169 58.0648 43.2001C58.0648 45.8464 60.236 48.0001 62.9036 48.0001C65.0035 48.0001 66.7778 46.6578 67.4456 44.8001H80.9439C81.6116 46.6578 83.386 48.0001 85.4861 48.0001C88.1537 48.0001 90.3249 45.8464 90.3249 43.2001C90.3249 41.1169 88.9717 39.3569 87.0989 38.6943V38.4H91.7843L93.7198 19.2H59.6773V22.4H90.1531L88.8626 35.1999H59.4884L56.2626 9.60017H49.9997V12.8002H53.4146L56.6405 38.4ZM80.9419 41.6H67.4436C66.9566 40.2449 65.8809 39.1775 64.5145 38.6943V38.4H83.8694V38.6943C82.505 39.1775 81.429 40.2449 80.9419 41.6ZM62.9033 44.8001C62.0127 44.8001 61.2903 44.0817 61.2903 43.2001C61.2903 42.3184 62.0127 41.6 62.9033 41.6C63.7937 41.6 64.5162 42.3184 64.5162 43.2001C64.5162 44.0817 63.7937 44.8001 62.9033 44.8001ZM85.4841 44.8001C84.5935 44.8001 83.8711 44.0817 83.8711 43.2001C83.8711 42.3184 84.5935 41.6 85.4841 41.6C86.3745 41.6 87.0969 42.3184 87.0969 43.2001C87.0969 44.0817 86.3742 44.8001 85.4841 44.8001Z" fill="white"/>
<path d="M61.2903 27.2001H87.0966V30.4002H61.2903V27.2001Z" fill="white"/>
<path d="M45.1616 38.4H6.4517V41.6H45.1616V38.4Z" fill="white"/>
<path d="M6.4517 46.4001H45.1616V49.6001H6.4517V46.4001Z" fill="white"/>
<path fill-rule="evenodd" clip-rule="evenodd" d="M4.83886 0H95.1613C97.829 0 100 2.15376 100 4.80008V63.9997C100 66.6461 97.829 68.7998 95.1613 68.7998H67.742V76.7999H75.8064V80H24.1935V76.7999H32.258V68.7998H4.83886C2.17118 68.7998 0 66.6461 0 63.9997V4.80008C0 2.15376 2.17118 0 4.83886 0ZM95.1616 3.20007H4.83886C3.94842 3.20007 3.22585 3.91842 3.22585 4.80008V54.3999H96.7745V4.80008C96.7745 3.91842 96.0521 3.20007 95.1616 3.20007ZM35.484 76.7999H64.5162V68.7998H35.484V76.7999ZM4.83886 65.5998H95.1613C96.0517 65.5998 96.7741 64.8814 96.7741 64.0001V57.5999H3.22585V63.9997C3.22585 64.8814 3.94842 65.5998 4.83886 65.5998Z" fill="white"/>
</svg>
