<svg width="80" height="90" viewBox="0 0 80 90" fill="none" xmlns="http://www.w3.org/2000/svg">
<path d="M54.0355 56.692C56.7864 53.678 58.8466 49.9098 60.1262 46.3533C62.0588 45.3148 63.588 43.2638 64.1973 40.8503C64.7428 38.6514 65.9819 33.7286 63.3123 31.3934V28.7362C63.4864 22.8387 62.8451 14.664 55.4922 11.093C55.1353 9.95584 55.0802 9.05947 55.0744 8.99275L54.1806 0L47.7214 6.08026C46.909 6.84899 41.5785 8.20951 36.4251 8.72587L34.4461 9.03626C20.4541 11.2351 20.6659 18.9805 20.8545 25.8179C20.8807 26.6969 20.9068 27.6251 20.9068 28.6579L20.9793 31.0482C19.5372 32.4203 18.42 35.1791 19.7751 40.7139C20.3642 43.1043 21.9456 45.1494 23.8259 46.0342C24.7602 48.4883 26.8059 53.0021 30.1574 56.6978C27.8883 57.3708 25.712 58.215 23.6547 59.2419C22.082 54.3655 17.5495 50.8003 12.1494 50.8003C5.4494 50.8003 0 56.2453 0 62.9434C0 68.1244 3.28183 72.5309 7.86362 74.2569C5.54806 78.6024 4.21327 83.4295 4.21327 88.5496V90H80V88.5496C80.0087 73.7173 69.1041 61.1304 54.0355 56.692ZM61.6293 87.0962V79.7309C61.6293 78.9273 60.9735 78.2804 60.1784 78.2804C59.3776 78.2804 58.7276 78.9273 58.7276 79.7309V87.0962H25.5002V79.7309C25.5002 78.9273 24.8502 78.2804 24.0493 78.2804C23.2485 78.2804 22.5985 78.9273 22.5985 79.7309V87.0962H7.16431C7.39644 82.7449 8.69351 78.6372 10.7914 74.9473C11.2441 74.9995 11.691 75.0836 12.1581 75.0836C18.8553 75.0836 24.3047 69.6387 24.3047 62.9376C24.3047 62.7549 24.2582 62.5808 24.2466 62.3923L41.0475 81.4627C41.3232 81.7673 41.7149 81.9558 42.1356 81.9558C42.1356 81.9558 42.1415 81.9558 42.1473 81.9558C42.568 81.9501 42.9626 81.776 43.2383 81.4453L59.7896 62.108C69.6844 67.2135 76.5034 76.4326 77.0693 87.0875H61.6322L61.6293 87.0962ZM12.1523 53.7012C16.4469 53.7012 20.0392 56.663 21.0664 60.643C21.197 61.142 21.2695 61.6583 21.3159 62.1776C21.3391 62.4329 21.3914 62.6766 21.3914 62.9434C21.3914 63.2828 21.3275 63.6077 21.2898 63.9413C20.8023 68.4116 17.1462 71.913 12.6021 72.1392C12.4483 72.1451 12.3032 72.1857 12.1523 72.1857C11.72 72.1857 11.3021 72.1247 10.8814 72.0551C10.3649 71.9942 9.8658 71.8753 9.37831 71.7215C5.64091 70.538 2.90751 67.0685 2.90751 62.9521C2.91041 57.8408 7.05694 53.7012 12.1523 53.7012ZM26.0863 43.7454L25.387 43.5365C24.1886 43.1739 23.0192 41.6944 22.6043 40.0235C21.7135 36.3858 21.9543 33.7982 23.2688 32.9309L23.9362 32.4928L23.8201 28.6172C23.8201 27.599 23.794 26.6417 23.7679 25.7396C23.5822 19.024 23.4342 13.7125 34.9075 11.9052L36.8023 11.6035C39.5009 11.3309 47.6576 10.1299 49.7149 8.1921L51.8738 6.15278L52.1784 9.21902C52.1872 9.38437 52.2858 10.9015 52.9648 12.6653L53.1824 13.2338L53.7425 13.4775C59.9637 16.1666 60.5731 22.9953 60.4019 28.684V32.9773L61.1476 33.395C62.8306 34.3407 61.7367 38.7036 61.3769 40.1367C60.9358 41.8975 59.7606 43.4002 58.4026 43.96L57.7874 44.2095L57.5814 44.839C56.2786 48.7088 53.9601 52.9412 50.7972 55.8885C50.3446 56.312 49.8745 56.692 49.3812 57.0546C48.7806 57.5014 48.1567 57.9162 47.5067 58.2614C46.2358 58.9257 44.8836 59.3782 43.4298 59.5465C43.0033 59.5987 42.5622 59.6306 42.1182 59.6306C41.5553 59.6306 41.004 59.5784 40.473 59.5059C39.1208 59.3086 37.8759 58.8532 36.7298 58.2527C36.0595 57.9017 35.4211 57.4985 34.8204 57.0517C34.333 56.6833 33.8629 56.2975 33.4189 55.8914C29.4407 52.1637 27.1658 46.684 26.3475 44.43L26.0863 43.7454ZM45.8556 73.9291L43.5604 64.9276L46.6391 62.2936L46.1835 61.902C48.1538 61.3073 49.947 60.3007 51.5633 59.0185C53.4668 59.4885 55.3036 60.1006 57.0649 60.8374L45.8556 73.9291ZM37.7512 61.8295L37.2086 62.2936L40.2786 64.9276L38.05 73.6796L26.8553 60.9679C28.7008 60.1818 30.6275 59.5233 32.6326 59.0243C34.1385 60.234 35.836 61.2203 37.7512 61.8295ZM11.247 68.9657L6.37795 65.0118L7.28908 63.8804L8.20312 62.7578L8.94305 63.3583L11.0758 65.093L14.8103 61.493L16.9227 59.4595L17.9296 60.498L18.9394 61.5452L16.6935 63.7122L12.0247 68.2172L11.247 68.9657Z" fill="white"/>
</svg>
