<svg width="34" height="40" viewBox="0 0 34 40" fill="none" xmlns="http://www.w3.org/2000/svg">
<path d="M31.1477 12.7114C29.571 12.7114 28.2954 13.9845 28.2954 15.5558V25.6379C28.2954 26.3929 28.5959 27.1169 29.1308 27.6508C29.6657 28.1846 30.3912 28.4845 31.1477 28.4845C31.9042 28.4845 32.6297 28.1846 33.1646 27.6508C33.6995 27.1169 34 26.3929 34 25.6379V15.5558C34 13.9845 32.7244 12.7114 31.1477 12.7114ZM2.85229 12.7114C1.27561 12.7114 0 13.9845 0 15.5558V25.6379C0 26.3929 0.300508 27.1169 0.835416 27.6508C1.37032 28.1846 2.09582 28.4845 2.85229 28.4845C3.60876 28.4845 4.33425 28.1846 4.86916 27.6508C5.40407 27.1169 5.70458 26.3929 5.70458 25.6379V15.5558C5.70487 15.182 5.63128 14.8118 5.48802 14.4664C5.34475 14.1211 5.13463 13.8073 4.86968 13.5431C4.60474 13.2789 4.29017 13.0694 3.94399 12.9267C3.59782 12.784 3.22684 12.7108 2.85229 12.7114ZM22.6756 4.23395L24.3883 1.14477C24.4384 1.05682 24.4704 0.959817 24.4826 0.859401C24.4948 0.758985 24.4868 0.657154 24.4592 0.559827C24.4316 0.4625 24.3849 0.371617 24.3218 0.292458C24.2587 0.213298 24.1805 0.147442 24.0917 0.0987147C24.0031 0.0488777 23.9055 0.0171062 23.8046 0.00524722C23.7036 -0.00661178 23.6013 0.00167809 23.5035 0.0296352C23.4058 0.0575922 23.3146 0.104659 23.2353 0.168099C23.1559 0.231539 23.09 0.310086 23.0413 0.399176L21.2818 3.55959C19.9705 3.03656 18.5254 2.74055 17 2.74055C15.4746 2.74055 14.0295 3.03433 12.7182 3.55736L10.9587 0.401402C10.91 0.312312 10.8441 0.233764 10.7647 0.170324C10.6854 0.106884 10.5942 0.0598182 10.4965 0.0318612C10.3987 0.0039041 10.2964 -0.00438577 10.1954 0.00747323C10.0945 0.0193322 9.99687 0.0511032 9.9083 0.10094C9.81992 0.150104 9.74213 0.216184 9.67937 0.295396C9.61661 0.374608 9.57013 0.465396 9.54258 0.562562C9.51503 0.659728 9.50695 0.761363 9.51881 0.861648C9.53067 0.961933 9.56224 1.0589 9.6117 1.14699L11.3244 4.23618C8.24019 5.98998 6.17959 9.12591 6.17959 12.7114C6.17959 12.7359 6.17959 12.7582 6.18405 12.7871C6.17959 12.8004 6.17959 12.816 6.17959 12.8294V12.8316H27.8182V12.7114C27.8204 9.12591 25.7598 5.99221 22.6756 4.23395ZM12.0046 8.61402C11.9031 8.61329 11.8028 8.59261 11.7093 8.55318C11.6158 8.51375 11.5311 8.45633 11.4598 8.38421C11.316 8.23854 11.236 8.0418 11.2374 7.83727C11.2389 7.63274 11.3217 7.43717 11.4677 7.29359C11.6137 7.15001 11.8108 7.07017 12.0157 7.07165C12.2207 7.07312 12.4166 7.15579 12.5605 7.30146C12.7044 7.44712 12.7844 7.64386 12.7829 7.8484C12.7814 8.05293 12.6986 8.24849 12.5526 8.39208C12.4067 8.53566 12.2095 8.61549 12.0046 8.61402ZM21.9954 8.61402C21.8009 8.59925 21.6192 8.51171 21.4866 8.36892C21.3539 8.22613 21.2803 8.03863 21.2803 7.84394C21.2803 7.64926 21.3539 7.46176 21.4866 7.31897C21.6192 7.17618 21.8009 7.08864 21.9954 7.07387C22.2001 7.07387 22.3963 7.155 22.541 7.29942C22.6857 7.44384 22.767 7.63971 22.767 7.84394C22.767 8.04818 22.6857 8.24405 22.541 8.38847C22.3963 8.53288 22.2001 8.61402 21.9954 8.61402ZM6.17959 29.2034C6.17959 30.6412 7.35039 31.8096 8.79772 31.8096H10.1046V37.1534C10.1046 37.9084 10.4051 38.6324 10.94 39.1663C11.4749 39.7001 12.2004 40 12.9568 40C13.7133 40 14.4388 39.7001 14.9737 39.1663C15.5086 38.6324 15.8091 37.9084 15.8091 37.1534V31.8096H18.1864V37.1534C18.1864 38.7269 19.462 39.9978 21.0342 39.9978C22.6154 39.9978 23.891 38.7269 23.891 37.1534V31.8096H25.1978C26.6429 31.8096 27.816 30.6434 27.816 29.2034V13.4192H6.17959V29.2034Z" fill="#3B82F6"/>
</svg>
