<svg width="76" height="68" viewBox="0 0 76 68" fill="none" xmlns="http://www.w3.org/2000/svg">
<g filter="url(#filter0_d_126_40)">
<path d="M69.1772 18.5057C66.7947 17.1302 63.747 17.9326 62.3835 20.2944C62.0643 20.8473 61.8558 21.4626 61.7713 22.0957L50.6159 25.0325C49.5817 22.666 47.8067 20.5927 45.3958 19.2007C43.4704 18.0891 41.2991 17.5126 39.0854 17.5207L37.5573 9.87293C38.2022 9.4528 38.7393 8.88768 39.1255 8.21876C40.4888 5.85746 39.6598 2.81742 37.2775 1.44201C34.8952 0.0666036 31.8479 0.868651 30.4847 3.22994C29.1211 5.5917 29.9499 8.6322 32.3322 10.0076C32.7824 10.2676 33.2626 10.4539 33.7649 10.564L35.276 18.1263C32.3536 19.068 29.9226 21.023 28.3899 23.6777C27.7756 24.7417 27.3275 25.8857 27.055 27.0842L13.3932 28.3286C12.954 27.5141 12.3035 26.8443 11.4914 26.3754C9.10896 25.0001 6.06168 25.8021 4.69832 28.1635C3.33477 30.5253 4.16361 33.5657 6.54601 34.9411C8.92828 36.3166 11.9758 35.5142 13.3393 33.1524C13.5218 32.8363 13.6677 32.5027 13.7752 32.1559L26.8037 30.9695C27.0272 33.3379 27.9317 35.6157 29.3945 37.4941L26.6965 39.7834C24.3856 38.7144 21.5936 39.5572 20.3091 41.782C18.9457 44.1435 19.7746 47.1836 22.1569 48.5591C24.5392 49.9345 27.5867 49.1324 28.9501 46.7708C29.6754 45.5146 29.8011 43.9991 29.3106 42.6343L32.2354 40.1526C32.4948 40.3296 32.7559 40.4941 33.0155 40.644C34.4009 41.4438 35.8973 41.9637 37.4702 42.1923L38.9096 50.4193C38.2367 50.843 37.6781 51.4219 37.2789 52.1133C35.9154 54.475 36.7439 57.5154 39.1258 58.8906C41.5085 60.2662 44.5562 59.4638 45.9198 57.1021C47.2831 54.7408 46.4538 51.7006 44.0712 50.325C43.644 50.0783 43.1885 49.8978 42.7122 49.7861L41.3762 42.1504C45.0391 41.5353 48.1657 39.3804 50.0211 36.1668C51.3641 33.8408 51.857 31.2517 51.5981 28.757L62.7846 25.812C63.1801 26.3186 63.6739 26.7493 64.2318 27.0714C66.614 28.4468 69.6611 27.6447 71.0244 25.2834C72.388 22.9215 71.5594 19.8811 69.1772 18.5057ZM42.5435 24.141C45.7594 25.9977 46.8784 30.1017 45.0379 33.2896C43.1973 36.4774 39.0838 37.5605 35.8678 35.7038C32.6518 33.847 31.5327 29.7429 33.3732 26.555C35.2137 23.3672 39.3275 22.2842 42.5435 24.141Z" fill="url(#paint0_linear_126_40)" fill-opacity="0.7" shape-rendering="crispEdges"/>
</g>
<defs>
<filter id="filter0_d_126_40" x="0.0415039" y="0.769501" width="75.6396" height="66.7936" filterUnits="userSpaceOnUse" color-interpolation-filters="sRGB">
<feFlood flood-opacity="0" result="BackgroundImageFix"/>
<feColorMatrix in="SourceAlpha" type="matrix" values="0 0 0 0 0 0 0 0 0 0 0 0 0 0 0 0 0 0 127 0" result="hardAlpha"/>
<feOffset dy="4"/>
<feGaussianBlur stdDeviation="2"/>
<feComposite in2="hardAlpha" operator="out"/>
<feColorMatrix type="matrix" values="0 0 0 0 0 0 0 0 0 0 0 0 0 0 0 0 0 0 0.1 0"/>
<feBlend mode="normal" in2="BackgroundImageFix" result="effect1_dropShadow_126_40"/>
<feBlend mode="normal" in="SourceGraphic" in2="effect1_dropShadow_126_40" result="shape"/>
</filter>
<linearGradient id="paint0_linear_126_40" x1="49.2487" y1="7" x2="24.2487" y2="50.3013" gradientUnits="userSpaceOnUse">
<stop stop-color="#337AB7"/>
<stop offset="1" stop-color="#337AB7" stop-opacity="0"/>
</linearGradient>
</defs>
</svg>
