<svg width="34" height="30" viewBox="0 0 34 30" fill="none" xmlns="http://www.w3.org/2000/svg">
<path d="M27.8506 23.128V16.4601H27.8786C28.942 16.4601 29.9564 16.2559 30.8938 15.8969V24.2545C30.8938 24.9305 30.4531 25.5219 29.8095 25.7191L15.8877 29.9366C15.7407 29.9789 15.5938 30 15.4469 30C15.3 30 15.1461 29.9789 15.0062 29.9366L1.08436 25.7191C0.440727 25.529 0 24.9305 0 24.2545V5.73667C0 5.06073 0.440727 4.46928 1.08436 4.27214L2.35062 3.89192L5.35885 2.98363V10.4471L8.80081 9.79229V1.9486L15.0132 0.0686482C15.0412 0.0545696 15.0691 0.0545696 15.0971 0.0475303L15.1811 0.0264038C15.363 -0.00880127 15.5449 -0.00880127 15.7267 0.0264038L15.8947 0.0686482L21.6942 1.82186C20.9597 2.59637 20.358 3.49763 19.9453 4.49745L16.972 3.59619V26.4232L27.8506 23.128Z" fill="#3B82F6"/>
<path fill-rule="evenodd" clip-rule="evenodd" d="M21.7572 7.80673C21.7572 4.40591 24.4926 1.64584 27.8786 1.64584C31.2576 1.64584 34 4.40591 34 7.80673C34 11.2075 31.2576 13.9676 27.8786 13.9676C24.4996 13.9676 21.7572 11.2146 21.7572 7.80673ZM27.0881 10.3345L30.9638 6.45485L29.7955 5.27196L27.095 7.97571L25.9687 6.83506L24.7934 8.01092L27.0881 10.3345Z" fill="#3B82F6"/>
</svg>
