<svg width="39" height="40" viewBox="0 0 39 40" fill="none" xmlns="http://www.w3.org/2000/svg">
<g filter="url(#filter0_d_126_41)">
<path d="M5.5156 17.5581L9.05843 15.5126L17.2238 29.6554L13.6809 31.7009C13.3677 31.8817 12.9957 31.931 12.6466 31.8378C12.2975 31.7446 12 31.5167 11.8196 31.2041L5.0151 19.4185C4.83464 19.1059 4.78599 18.7343 4.87985 18.3854C4.97371 18.0365 5.2024 17.7389 5.5156 17.5581ZM10.8865 12.4253L14.0897 0.518879C14.1321 0.360344 14.2304 0.222334 14.3664 0.130231C14.5024 0.0381277 14.6671 -0.00187642 14.8301 0.0175773L16.2729 0.190269C16.6737 0.238347 17.051 0.403921 17.3574 0.666116C17.6637 0.92831 17.8853 1.27538 17.9943 1.66357L19.715 7.78861L27.2731 3.42497C27.8995 3.06331 28.6436 2.96481 29.3418 3.15113C30.0399 3.33744 30.6349 3.79332 30.9959 4.41847L32.4275 6.89817C32.6057 7.20602 32.7217 7.54587 32.7689 7.89851L34.2274 18.8657C34.2629 19.1331 34.2181 19.4051 34.0986 19.6473C33.9791 19.8895 33.7903 20.0909 33.5562 20.2259L20.7666 27.61C20.4534 27.7908 20.0813 27.84 19.7323 27.7469C19.3832 27.6537 19.0857 27.4258 18.9052 27.1132L11.0216 13.4584C10.8412 13.1458 10.7926 12.7742 10.8865 12.4253Z" fill="url(#paint0_linear_126_41)" fill-opacity="0.7" shape-rendering="crispEdges"/>
</g>
<defs>
<filter id="filter0_d_126_41" x="0.833008" y="0.0127716" width="37.4062" height="39.8711" filterUnits="userSpaceOnUse" color-interpolation-filters="sRGB">
<feFlood flood-opacity="0" result="BackgroundImageFix"/>
<feColorMatrix in="SourceAlpha" type="matrix" values="0 0 0 0 0 0 0 0 0 0 0 0 0 0 0 0 0 0 127 0" result="hardAlpha"/>
<feOffset dy="4"/>
<feGaussianBlur stdDeviation="2"/>
<feComposite in2="hardAlpha" operator="out"/>
<feColorMatrix type="matrix" values="0 0 0 0 0 0 0 0 0 0 0 0 0 0 0 0 0 0 0.1 0"/>
<feBlend mode="normal" in2="BackgroundImageFix" result="effect1_dropShadow_126_41"/>
<feBlend mode="normal" in="SourceGraphic" in2="effect1_dropShadow_126_41" result="shape"/>
</filter>
<linearGradient id="paint0_linear_126_41" x1="11.9904" y1="1.5" x2="25.4904" y2="24.8827" gradientUnits="userSpaceOnUse">
<stop stop-color="#337AB7"/>
<stop offset="1" stop-color="#337AB7" stop-opacity="0"/>
</linearGradient>
</defs>
</svg>
