<svg width="56" height="56" viewBox="0 0 56 56" fill="none" xmlns="http://www.w3.org/2000/svg">
<path d="M27.1667 26.7698C28.3086 26.1106 29.2294 25.1275 29.8126 23.9449C30.3957 22.7624 30.6151 21.4334 30.443 20.1261C30.2709 18.8189 29.715 17.592 28.8457 16.6007C27.9763 15.6094 26.8325 14.8981 25.5589 14.5568C24.2852 14.2156 22.939 14.2596 21.6905 14.6835C20.4419 15.1073 19.3471 15.8918 18.5444 16.9379C17.7417 17.984 17.2672 19.2446 17.181 20.5603C17.0948 21.876 17.4006 23.1878 18.0599 24.3297C18.944 25.8609 20.4001 26.9782 22.1079 27.4358C23.8158 27.8935 25.6355 27.6539 27.1667 26.7698Z" fill="url(#paint0_linear_208_18)" fill-opacity="0.7"/>
<path d="M44.16 36.2036C44.5429 35.9826 44.8222 35.6185 44.9366 35.1916C45.051 34.7646 44.9911 34.3097 44.7701 33.9269C43.223 31.2472 40.6748 29.2919 37.686 28.4911C34.6973 27.6902 31.5128 28.1095 28.8331 29.6566C26.1535 31.2037 24.1982 33.7519 23.3973 36.7407C22.5965 39.7294 23.0157 42.9139 24.5628 45.5935C24.7838 45.9764 25.1479 46.2557 25.5748 46.3701C26.0018 46.4845 26.4567 46.4246 26.8395 46.2036L44.16 36.2036Z" fill="url(#paint1_linear_208_18)" fill-opacity="0.7"/>
<defs>
<linearGradient id="paint0_linear_208_18" x1="20.5001" y1="15.2228" x2="27.1667" y2="26.7698" gradientUnits="userSpaceOnUse">
<stop stop-color="#337AB7"/>
<stop offset="1" stop-color="#337AB7" stop-opacity="0"/>
</linearGradient>
<linearGradient id="paint1_linear_208_18" x1="28.8331" y1="29.6566" x2="35.4998" y2="41.2036" gradientUnits="userSpaceOnUse">
<stop stop-color="#337AB7"/>
<stop offset="1" stop-color="#337AB7" stop-opacity="0"/>
</linearGradient>
</defs>
</svg>
