<svg width="20" height="20" viewBox="0 0 20 20" fill="none" xmlns="http://www.w3.org/2000/svg">
<path d="M20 18.418L14.0955 12.5135C15.0756 11.2056 15.6638 9.58808 15.6638 7.83188C15.6638 3.51316 12.1506 0 7.83188 0C3.51316 0 0 3.51316 0 7.83188C0 12.1506 3.51316 15.6638 7.83188 15.6638C9.58808 15.6638 11.2056 15.0756 12.5135 14.0955L18.418 20L20 18.418ZM0.745893 7.83188C0.745893 3.92452 3.92452 0.745893 7.83188 0.745893C11.7392 0.745893 14.9179 3.92452 14.9179 7.83188C14.9179 11.7392 11.7392 14.9179 7.83188 14.9179C3.92452 14.9179 0.745893 11.7392 0.745893 7.83188Z" fill="white"/>
</svg>
