<svg width="38" height="35" viewBox="0 0 38 35" fill="none" xmlns="http://www.w3.org/2000/svg">
<path d="M32.4965 18.5112L26.9944 13.1248H30.2196L30.1272 12.8895C28.2157 8.15465 23.4948 4.79467 17.9682 4.79467C10.7516 4.79467 4.89893 10.5214 4.89893 17.5804C4.89893 24.6488 10.7516 30.3755 17.9682 30.3755C23.276 30.3755 27.8462 27.5461 29.8895 23.0905L35.1253 23.1423C35.1076 23.1822 31.0062 35 17.8812 35C8.00593 35.0013 0 27.1645 0 17.502C0 7.83288 8.00593 0 17.8799 0C26.1399 0 33.0888 5.47278 35.1457 12.9174L35.1892 13.1248H38L32.4965 18.5112Z" fill="#3B82F6"/>
</svg>
