<svg width="34" height="30" viewBox="0 0 34 30" fill="none" xmlns="http://www.w3.org/2000/svg">
<path d="M34 24.6429C34 23.2221 33.4411 21.8593 32.4445 20.8543C31.4479 19.8493 30.0964 19.2857 28.6875 19.2857C24.3249 19.2857 18.1751 19.2857 13.8125 19.2857C12.4036 19.2857 11.0521 19.8493 10.0555 20.8543C9.05888 21.8593 8.5 23.2221 8.5 24.6429C8.5 28.1721 8.5 30 8.5 30H34C34 30 34 28.1721 34 24.6429ZM6.375 25.7143H0C0 25.7143 0 23.8864 0 20.3571C0 18.9364 0.558875 17.5736 1.5555 16.5686C2.55212 15.5636 3.90363 15 5.3125 15H13.889C14.3522 15.8057 14.9409 16.53 15.6294 17.1429H13.8125C9.70487 17.1429 6.375 20.5007 6.375 24.6429V25.7143ZM21.25 4.28571C24.769 4.28571 27.625 7.16571 27.625 10.7143C27.625 14.2629 24.769 17.1429 21.25 17.1429C17.731 17.1429 14.875 14.2629 14.875 10.7143C14.875 7.16571 17.731 4.28571 21.25 4.28571ZM13.0177 12.8507C12.9285 12.855 12.8392 12.8571 12.75 12.8571C9.231 12.8571 6.375 9.97714 6.375 6.42857C6.375 2.88 9.231 0 12.75 0C14.9303 0 16.8555 1.10571 18.0051 2.79C14.9217 4.07786 12.75 7.14214 12.75 10.7143C12.75 11.4514 12.8435 12.1693 13.0177 12.8507Z" fill="white"/>
</svg>
