<svg width="30" height="30" viewBox="0 0 30 30" fill="none" xmlns="http://www.w3.org/2000/svg">
<path d="M2.37854 0C1.06247 0 0 1.06247 0 2.37854V27.6215C0 28.9375 1.06247 30 2.37854 30H27.6215C28.9375 30 30 28.9375 30 27.6215V2.37854C30 1.06247 28.9375 0 27.6215 0H2.37854ZM21.1336 6.16397H24.6964C25.4007 6.16397 25.9717 6.73495 25.9717 7.43927V22.1964C25.9717 22.9007 25.4007 23.4717 24.6964 23.4717H21.1336C20.4293 23.4717 19.8583 22.9007 19.8583 22.1964V7.43927C19.8583 6.73495 20.4293 6.16397 21.1336 6.16397ZM13.2186 12.0547H16.7814C17.4857 12.0547 18.0567 12.6256 18.0567 13.33V22.1964C18.0567 22.9007 17.4857 23.4717 16.7814 23.4717H13.2186C12.5143 23.4717 11.9433 22.9007 11.9433 22.1964V13.33C11.9433 12.6256 12.5143 12.0547 13.2186 12.0547ZM5.30364 17.0243H8.8664C9.57072 17.0243 10.1417 17.5953 10.1417 18.2996V22.1964C10.1417 22.9007 9.57072 23.4717 8.8664 23.4717H5.30364C4.59932 23.4717 4.02834 22.9007 4.02834 22.1964V18.2996C4.02834 17.5953 4.59932 17.0243 5.30364 17.0243ZM4.41296 25.1012H25.587C25.7981 25.1012 25.9717 25.2646 25.9717 25.4757V26.083C25.9717 26.2941 25.7981 26.4676 25.587 26.4676H4.41296C4.20185 26.4676 4.02834 26.2941 4.02834 26.083V25.4757C4.02834 25.2646 4.20185 25.1012 4.41296 25.1012Z" fill="white"/>
</svg>
