<svg width="30" height="30" viewBox="0 0 30 30" fill="none" xmlns="http://www.w3.org/2000/svg">
<path fill-rule="evenodd" clip-rule="evenodd" d="M0 1C0 0.399902 0.400391 0 1 0H14V14H0V1ZM8 8H10C10.5996 8 11 7.6001 11 7C11 6.60083 10.8223 6.29004 10.5273 6.12671C10.3789 6.04468 10.2012 6 10 6H8V4C8 3.3999 7.59961 3 7 3C6.40039 3 6 3.3999 6 4V6H4C3.40039 6 3 6.3999 3 7C3 7.6001 3.40039 8 4 8H6V10C6 10.6001 6.40039 11 7 11C7.59961 11 8 10.6001 8 10V8Z" fill="white"/>
<path fill-rule="evenodd" clip-rule="evenodd" d="M0 29V16H14V30H1C0.738281 30 0.514648 29.9241 0.345703 29.7888C0.126953 29.6135 0 29.3386 0 29ZM9.7998 25.8C10.2002 25.3999 10.2002 24.8 9.7998 24.3999L8.40039 23L9.7998 21.6001C10.2002 21.2 10.2002 20.6001 9.7998 20.2C9.40039 19.8 8.7998 19.8 8.40039 20.2L7 21.6001L5.59961 20.2C5.2002 19.8 4.59961 19.8 4.2002 20.2C3.93262 20.4668 3.84375 20.8228 3.93359 21.1489C3.97852 21.3115 4.06738 21.4668 4.2002 21.6001L5.59961 23L4.2002 24.3999C3.7998 24.8 3.7998 25.3999 4.2002 25.8C4.31738 25.9165 4.46777 25.9993 4.61328 26.0479C4.7168 26.0828 4.81738 26.1001 4.90039 26.1001C4.94727 26.1001 4.99902 26.0947 5.05371 26.0837C5.08398 26.0776 5.11621 26.0698 5.14844 26.0605C5.18652 26.0491 5.22559 26.0354 5.26465 26.019C5.38477 25.9692 5.50391 25.8962 5.59961 25.8L7 24.3999L8.40039 25.8C8.48535 25.8855 8.58887 25.9526 8.69531 26.0017C8.76465 26.0337 8.83594 26.0579 8.90332 26.0742C8.97363 26.0916 9.04102 26.1001 9.09961 26.1001C9.13574 26.1001 9.1748 26.0969 9.21582 26.0906C9.28809 26.0793 9.36523 26.0583 9.44336 26.0278C9.51465 25.9998 9.58691 25.9634 9.6543 25.9187C9.70605 25.884 9.75586 25.8445 9.7998 25.8Z" fill="white"/>
<path fill-rule="evenodd" clip-rule="evenodd" d="M29 0H16V14H30V1C30 0.399902 29.5996 0 29 0ZM26 8H20C19.4004 8 19 7.6001 19 7C19 6.62207 19.1592 6.32349 19.4258 6.1543C19.583 6.05469 19.7783 6 20 6H26C26.2158 6 26.4062 6.05176 26.5605 6.14624C26.8359 6.31396 27 6.61597 27 7C27 7.6001 26.5996 8 26 8Z" fill="white"/>
<path fill-rule="evenodd" clip-rule="evenodd" d="M29 30H16V16H30V29C30 29.6001 29.5996 30 29 30ZM20 26H26C26.5996 26 27 25.6001 27 25C27 24.3999 26.5996 24 26 24H20C19.4004 24 19 24.3999 19 25C19 25.6001 19.4004 26 20 26ZM20 22H26C26.5996 22 27 21.6001 27 21C27 20.3999 26.5996 20 26 20H20C19.4004 20 19 20.3999 19 21C19 21.6001 19.4004 22 20 22Z" fill="white"/>
</svg>
