<svg width="26" height="30" viewBox="0 0 26 30" fill="none" xmlns="http://www.w3.org/2000/svg">
<path fill-rule="evenodd" clip-rule="evenodd" d="M12.7244 2.23828V3.12744L16.1218 3.12738V5.73844H4.90435V3.12744H8.30159V2.23828C8.30159 1.00406 9.29364 0 10.513 0C11.7324 0 12.7244 1.00406 12.7244 2.23828ZM9.8121 2.17664C9.8121 2.56845 10.1259 2.8861 10.513 2.8861C10.9001 2.8861 11.214 2.5684 11.214 2.17664C11.214 1.78482 10.9001 1.46719 10.513 1.46719C10.1259 1.46719 9.8121 1.78482 9.8121 2.17664Z" fill="white"/>
<path fill-rule="evenodd" clip-rule="evenodd" d="M21.026 16.2012V5.0257H17.8786V7.51669H3.14742V5.0257H0V30H21.0261V26.9348H16.0519V16.2012H21.026ZM3.03424 9.08748H17.9916V10.8657H3.03424V9.08748ZM10.5129 26.7614H3.03424V24.9831H10.5129V26.7614ZM3.03424 14.2112V12.4329H17.9916V14.2112H3.03424Z" fill="white"/>
<path fill-rule="evenodd" clip-rule="evenodd" d="M17.8089 17.9795V25.1566H26V17.9795H17.8089ZM20.9558 24.2912L18.5712 21.8776L19.8135 20.6201L20.9558 21.7763L23.9955 18.6997L25.2378 19.9572L20.9558 24.2912Z" fill="white"/>
</svg>
